<?xml version="1.0" encoding="iso-8859-1"?>
<!-- Generator: Adobe Illustrator 19.0.0, SVG Export Plug-In . SVG Version: 6.00 Build 0)  -->
<svg version="1.1" id="Layer_1" xmlns="http://www.w3.org/2000/svg" xmlns:xlink="http://www.w3.org/1999/xlink" x="0px" y="0px"
	 viewBox="0 0 512 512" style="enable-background:new 0 0 512 512;" xml:space="preserve">
<circle style="fill:#6F6F6F;" cx="256" cy="256" r="256"/>
<path style="fill:#444444;" d="M512,256c0,141.384-114.616,256-256,256c0-56.895,0-483.015,0-512C397.384,0,512,114.616,512,256z"/>
<rect x="238.136" y="50.198" style="fill:#F1F1F1;" width="35.718" height="60.138"/>
<rect x="256" y="50.198" style="fill:#D7D7D7;" width="17.864" height="60.138"/>
<g>
	
		<rect x="121.707" y="96.27" transform="matrix(-0.5878 -0.809 0.809 -0.5878 148.6589 304)" style="fill:#F1F1F1;" width="60.137" height="35.717"/>
	
		<rect x="57.299" y="184.95" transform="matrix(-0.9511 -0.309 0.309 -0.9511 107.797 422.6916)" style="fill:#F1F1F1;" width="60.14" height="35.719"/>
	
		<rect x="69.483" y="282.32" transform="matrix(-0.309 -0.9511 0.9511 -0.309 -182.7733 491.9826)" style="fill:#F1F1F1;" width="35.719" height="60.14"/>
</g>
<g>
	
		<rect x="394.593" y="294.537" transform="matrix(-0.9511 -0.309 0.309 -0.9511 732.019 740.722)" style="fill:#D7D7D7;" width="60.14" height="35.719"/>
	
		<rect x="406.759" y="172.738" transform="matrix(-0.309 -0.9511 0.9511 -0.309 362.9369 669.3131)" style="fill:#D7D7D7;" width="35.719" height="60.14"/>
	
		<rect x="342.37" y="84.071" transform="matrix(-0.809 -0.5878 0.5878 -0.809 584.5632 418.2227)" style="fill:#D7D7D7;" width="35.717" height="60.137"/>
</g>
<rect x="181.081" y="358.979" style="fill:#F1F1F1;" width="149.827" height="73.445"/>
<rect x="256" y="358.979" style="fill:#D7D7D7;" width="74.919" height="73.445"/>
<rect x="238.136" y="144.339" style="fill:#DD5323;" width="35.718" height="102.2"/>
<rect x="256" y="144.339" style="fill:#BF0F36;" width="17.864" height="102.2"/>
<circle style="fill:#F1F1F1;" cx="256" cy="274.421" r="37.966"/>
<path style="fill:#D7D7D7;" d="M293.969,274.42c0,20.97-17,37.969-37.969,37.969c0-13.105,0-65.847,0-75.938
	C276.97,236.451,293.969,253.45,293.969,274.42z"/>
<g>
</g>
<g>
</g>
<g>
</g>
<g>
</g>
<g>
</g>
<g>
</g>
<g>
</g>
<g>
</g>
<g>
</g>
<g>
</g>
<g>
</g>
<g>
</g>
<g>
</g>
<g>
</g>
<g>
</g>
</svg>
